<svg width="16" height="16" viewBox="0 0 24 24" fill="none" xmlns="http://www.w3.org/2000/svg">
<path id="shield" d="M12 21.3711C11.8961 21.3711 11.7942 21.3628 11.6942 21.3461C11.5942 21.3294 11.4973 21.3044 11.4036 21.2711C9.29479 20.5211 7.61698 19.1913 6.3702 17.2817C5.1234 15.3721 4.5 13.3115 4.5 11.1V6.59615C4.5 6.2163 4.60922 5.87443 4.82765 5.57055C5.04608 5.26667 5.32853 5.04636 5.675 4.90963L11.3673 2.78463C11.5814 2.70771 11.7923 2.66925 12 2.66925C12.2077 2.66925 12.4186 2.70771 12.6327 2.78463L18.325 4.90963C18.6714 5.04636 18.9539 5.26667 19.1723 5.57055C19.3907 5.87443 19.5 6.2163 19.5 6.59615V11.1C19.5 13.3115 18.8765 15.3721 17.6297 17.2817C16.383 19.1913 14.7052 20.5211 12.5963 21.2711C12.5026 21.3044 12.4057 21.3294 12.3057 21.3461C12.2057 21.3628 12.1038 21.3711 12 21.3711ZM12 19.9C13.7333 19.35 15.1666 18.25 16.3 16.6C17.4333 14.95 18 13.1166 18 11.1V6.58652C18 6.52242 17.9823 6.46473 17.9471 6.41345C17.9118 6.36215 17.8621 6.32368 17.798 6.29805L12.1057 4.17305C12.0737 4.16023 12.0384 4.15383 12 4.15383C11.9615 4.15383 11.9263 4.16023 11.8942 4.17305L6.20192 6.29805C6.13781 6.32368 6.08812 6.36215 6.05287 6.41345C6.01761 6.46473 5.99997 6.52242 5.99997 6.58652V11.1C5.99997 13.1166 6.56664 14.95 7.69997 16.6C8.83331 18.25 10.2666 19.35 12 19.9Z" fill="currentColor"/>
</svg>
