<svg width="24" height="24" viewBox="0 0 24 24" fill="none" xmlns="http://www.w3.org/2000/svg">
<mask id="mask0_2110_5201" style="mask-type:alpha" maskUnits="userSpaceOnUse" x="0" y="0" width="24" height="24">
<rect width="24" height="24" fill="#D9D9D9"/>
</mask>
<g mask="url(#mask0_2110_5201)">
<path d="M11.989 17.6154C12.2745 17.6154 12.5157 17.5168 12.7125 17.3196C12.9093 17.1225 13.0077 16.8811 13.0077 16.5956C13.0077 16.3101 12.9091 16.0689 12.7119 15.8721C12.5148 15.6753 12.2735 15.5769 11.9879 15.5769C11.7024 15.5769 11.4612 15.6755 11.2644 15.8727C11.0676 16.0698 10.9692 16.3111 10.9692 16.5967C10.9692 16.8822 11.0678 17.1234 11.265 17.3202C11.4621 17.517 11.7035 17.6154 11.989 17.6154ZM12.0017 21.5C10.6877 21.5 9.45271 21.2506 8.29657 20.752C7.14042 20.2533 6.13474 19.5766 5.27952 18.7217C4.42429 17.8669 3.74723 16.8616 3.24835 15.706C2.74946 14.5504 2.50002 13.3156 2.50002 12.0017C2.50002 10.6877 2.74936 9.45271 3.24802 8.29657C3.74669 7.14042 4.42344 6.13474 5.27827 5.27953C6.13312 4.42429 7.13836 3.74723 8.294 3.24835C9.44962 2.74947 10.6844 2.50002 11.9983 2.50002C13.3123 2.50002 14.5473 2.74936 15.7034 3.24803C16.8596 3.74669 17.8653 4.42344 18.7205 5.27827C19.5757 6.13312 20.2528 7.13837 20.7516 8.294C21.2505 9.44962 21.5 10.6844 21.5 11.9983C21.5 13.3123 21.2506 14.5473 20.752 15.7034C20.2533 16.8596 19.5766 17.8653 18.7217 18.7205C17.8669 19.5757 16.8616 20.2528 15.706 20.7517C14.5504 21.2505 13.3156 21.5 12.0017 21.5ZM12 20C14.2333 20 16.125 19.225 17.675 17.675C19.225 16.125 20 14.2333 20 12C20 9.76667 19.225 7.875 17.675 6.325C16.125 4.775 14.2333 4 12 4C9.76666 4 7.875 4.775 6.325 6.325C4.775 7.875 4 9.76667 4 12C4 14.2333 4.775 16.125 6.325 17.675C7.875 19.225 9.76666 20 12 20ZM12.081 7.71922C12.5424 7.71922 12.9417 7.86447 13.2788 8.15495C13.616 8.44543 13.7846 8.80853 13.7846 9.24425C13.7846 9.61092 13.6769 9.93912 13.4615 10.2289C13.2462 10.5186 13 10.7885 12.7231 11.0385C12.3601 11.3605 12.0405 11.7147 11.7643 12.1012C11.4881 12.4876 11.3404 12.918 11.3212 13.3923C11.3148 13.5744 11.3789 13.7269 11.5135 13.85C11.6481 13.9731 11.8051 14.0346 11.9846 14.0346C12.1769 14.0346 12.3397 13.9705 12.4731 13.8423C12.6064 13.7141 12.6916 13.5571 12.7288 13.3712C12.7955 13.0276 12.9375 12.7215 13.1548 12.4529C13.3721 12.1843 13.6075 11.9289 13.861 11.6867C14.2255 11.3315 14.5436 10.9441 14.8153 10.5247C15.0871 10.1052 15.223 9.63741 15.223 9.12118C15.223 8.32888 14.9109 7.67792 14.2865 7.1683C13.6622 6.65868 12.9333 6.40388 12.1 6.40388C11.5051 6.40388 10.9442 6.53561 10.4173 6.79908C9.89041 7.06253 9.48015 7.44682 9.18655 7.95195C9.09553 8.10707 9.06631 8.27034 9.0989 8.44178C9.13148 8.61319 9.21946 8.74335 9.36282 8.83225C9.54531 8.93383 9.7327 8.96283 9.925 8.91923C10.1173 8.87564 10.2808 8.76603 10.4154 8.5904C10.6179 8.32757 10.8631 8.11667 11.1509 7.9577C11.4388 7.79872 11.7488 7.71922 12.081 7.71922Z" fill="currentColor"/>
</g>
</svg>
