<svg width="24" height="24" viewBox="0 0 24 24" fill="none" xmlns="http://www.w3.org/2000/svg">
<mask id="mask0_2110_5210" style="mask-type:alpha" maskUnits="userSpaceOnUse" x="0" y="0" width="24" height="24">
<rect width="24" height="24" fill="#D9D9D9"/>
</mask>
<g mask="url(#mask0_2110_5210)">
<path d="M6.30773 21.5C5.80901 21.5 5.38305 21.3234 5.02985 20.9702C4.67663 20.6169 4.50003 20.191 4.50003 19.6923V10.3077C4.50003 9.80901 4.67663 9.38305 5.02985 9.02985C5.38305 8.67663 5.80901 8.50002 6.30773 8.50002H7.50003V6.50002C7.50003 5.25132 7.93784 4.18916 8.81348 3.31353C9.68913 2.43789 10.7513 2.00007 12 2.00007C13.2487 2.00007 14.3109 2.43789 15.1865 3.31353C16.0622 4.18916 16.5 5.25132 16.5 6.50002V8.50002H17.6923C18.191 8.50002 18.617 8.67663 18.9702 9.02985C19.3234 9.38305 19.5 9.80901 19.5 10.3077V19.6923C19.5 20.191 19.3234 20.6169 18.9702 20.9702C18.617 21.3234 18.191 21.5 17.6923 21.5H6.30773ZM6.30773 20H17.6923C17.782 20 17.8558 19.9711 17.9135 19.9135C17.9712 19.8558 18 19.782 18 19.6923V10.3077C18 10.218 17.9712 10.1442 17.9135 10.0865C17.8558 10.0288 17.782 10 17.6923 10H6.30773C6.21798 10 6.14425 10.0288 6.08655 10.0865C6.02885 10.1442 6 10.218 6 10.3077V19.6923C6 19.782 6.02885 19.8558 6.08655 19.9135C6.14425 19.9711 6.21798 20 6.30773 20ZM12 16.75C12.4859 16.75 12.899 16.5798 13.2394 16.2394C13.5798 15.899 13.75 15.4859 13.75 15C13.75 14.5141 13.5798 14.101 13.2394 13.7606C12.899 13.4202 12.4859 13.25 12 13.25C11.5141 13.25 11.101 13.4202 10.7606 13.7606C10.4202 14.101 10.25 14.5141 10.25 15C10.25 15.4859 10.4202 15.899 10.7606 16.2394C11.101 16.5798 11.5141 16.75 12 16.75ZM9 8.50002H15V6.50002C15 5.66669 14.7083 4.95836 14.125 4.37502C13.5417 3.79169 12.8333 3.50002 12 3.50002C11.1667 3.50002 10.4583 3.79169 9.875 4.37502C9.29167 4.95836 9 5.66669 9 6.50002V8.50002Z" fill="currentColor"/>
</g>
</svg>
