<svg width="24" height="24" viewBox="0 0 24 24" fill="none" xmlns="http://www.w3.org/2000/svg">
<mask id="mask0_2110_5200" style="mask-type:alpha" maskUnits="userSpaceOnUse" x="0" y="0" width="24" height="24">
<rect width="24" height="24" fill="#D9D9D9"/>
</mask>
<g mask="url(#mask0_2110_5200)">
<path d="M5.30772 20.5C4.80259 20.5 4.37502 20.325 4.02502 19.975C3.67502 19.625 3.50002 19.1974 3.50002 18.6923V5.30772C3.50002 4.80259 3.67502 4.37502 4.02502 4.02502C4.37502 3.67502 4.80259 3.50002 5.30772 3.50002H11.2596C11.4724 3.50002 11.6506 3.57182 11.7942 3.71542C11.9378 3.85901 12.0096 4.03721 12.0096 4.25002C12.0096 4.46284 11.9378 4.64104 11.7942 4.78462C11.6506 4.92821 11.4724 5 11.2596 5H5.30772C5.23079 5 5.16026 5.03205 5.09615 5.09615C5.03205 5.16027 5 5.23079 5 5.30772V18.6923C5 18.7692 5.03205 18.8397 5.09615 18.9038C5.16026 18.9679 5.23079 19 5.30772 19H11.2596C11.4724 19 11.6506 19.0718 11.7942 19.2154C11.9378 19.359 12.0096 19.5372 12.0096 19.75C12.0096 19.9628 11.9378 20.141 11.7942 20.2846C11.6506 20.4282 11.4724 20.5 11.2596 20.5H5.30772ZM17.6173 12.75H9.84615C9.63333 12.75 9.45513 12.6782 9.31155 12.5346C9.16795 12.391 9.09615 12.2128 9.09615 12C9.09615 11.7872 9.16795 11.609 9.31155 11.4654C9.45513 11.3218 9.63333 11.25 9.84615 11.25H17.6173L15.6942 9.32695C15.5558 9.18848 15.485 9.01957 15.4818 8.82022C15.4786 8.62087 15.5494 8.44363 15.6942 8.2885C15.8391 8.13338 16.0148 8.05326 16.2212 8.04812C16.4276 8.04299 16.6083 8.11799 16.7635 8.27312L19.8576 11.3673C20.0384 11.5481 20.1288 11.759 20.1288 12C20.1288 12.241 20.0384 12.4519 19.8576 12.6327L16.7635 15.7269C16.6148 15.8756 16.4382 15.949 16.2337 15.9471C16.0292 15.9451 15.8494 15.8666 15.6942 15.7115C15.5494 15.5564 15.4795 15.3782 15.4846 15.1769C15.4898 14.9756 15.5648 14.8025 15.7096 14.6577L17.6173 12.75Z" fill="currentColor"/>
</g>
</svg>
