<svg width="24" height="24" viewBox="0 0 24 24" fill="none" xmlns="http://www.w3.org/2000/svg">
<g clip-path="url(#clip0_24_4048)">
<path d="M3.76467 19.9989C5.94802 12.4805 18.062 12.4805 20.2353 19.9989C20.2856 20.1491 20.1347 20.2392 19.9637 20.2492H4.02627C3.85523 20.2492 3.71437 20.1491 3.75461 19.9989H3.76467Z" stroke="currentColor" stroke-width="1.5"/>
<path d="M16.09 7.71524C16.09 8.75639 15.6674 9.76752 14.8927 10.5083C14.128 11.2492 13.0816 11.6796 11.9849 11.6796C10.8882 11.6796 9.85187 11.2592 9.07714 10.5083C8.31247 9.76752 7.87982 8.75639 7.87982 7.71524C7.87982 6.67408 8.3024 5.66296 9.07714 4.92213C9.84181 4.18131 10.8882 3.75083 11.9849 3.75083C13.0816 3.75083 14.1179 4.1713 14.8927 4.92213C15.6574 5.66296 16.09 6.67408 16.09 7.71524Z" stroke="currentColor" stroke-width="1.5"/>
</g>
<defs>
<clipPath id="clip0_24_4048">
<rect width="18" height="18" fill="white" transform="translate(3 3)"/>
</clipPath>
</defs>
</svg>
