<svg width="24" height="24" viewBox="0 0 24 24" fill="none" xmlns="http://www.w3.org/2000/svg">
<path d="M10.4808 21.5C10.2564 21.5 10.0622 21.4247 9.8981 21.274C9.734 21.1234 9.63528 20.9359 9.60195 20.7115L9.31157 18.4538C9.04362 18.3641 8.76894 18.2384 8.48752 18.0769C8.2061 17.9154 7.9545 17.7423 7.7327 17.5577L5.64425 18.4384C5.43015 18.532 5.21765 18.5429 5.00675 18.4711C4.79585 18.3993 4.63014 18.2647 4.50962 18.0673L3.00582 15.4481C2.8917 15.2506 2.85645 15.0398 2.90005 14.8154C2.94363 14.591 3.0558 14.4103 3.23657 14.2731L5.04427 12.9058C5.02119 12.7571 5.00484 12.6077 4.99522 12.4577C4.9856 12.3077 4.9808 12.1583 4.9808 12.0096C4.9808 11.8673 4.9856 11.7228 4.99522 11.576C5.00484 11.4292 5.02119 11.2686 5.04427 11.0942L3.23657 9.7269C3.0558 9.58973 2.94203 9.40897 2.89525 9.1846C2.84845 8.96025 2.8853 8.74936 3.00582 8.55193L4.50962 5.95197C4.63014 5.75454 4.79425 5.61992 5.00195 5.54812C5.20963 5.47632 5.42052 5.48722 5.63462 5.58082L7.72307 6.45197C7.9641 6.26094 8.22148 6.08626 8.4952 5.92793C8.76893 5.76958 9.03785 5.64232 9.30195 5.54617L9.60195 3.2885C9.63528 3.06413 9.734 2.87663 9.8981 2.726C10.0622 2.57535 10.2564 2.50002 10.4808 2.50002H13.5096C13.7339 2.50002 13.9298 2.57535 14.0971 2.726C14.2644 2.87663 14.3647 3.06413 14.398 3.2885L14.6884 5.5558C14.9884 5.66477 15.2599 5.79201 15.5029 5.93752C15.7458 6.08304 15.991 6.25452 16.2384 6.45197L18.3654 5.58082C18.5795 5.48722 18.7904 5.47472 18.998 5.54332C19.2057 5.61191 19.3699 5.74492 19.4904 5.94235L20.9942 8.55193C21.1147 8.74936 21.1515 8.96025 21.1047 9.1846C21.058 9.40897 20.9442 9.58973 20.7634 9.7269L18.9173 11.1231C18.9532 11.2846 18.9727 11.4356 18.9759 11.576C18.9791 11.7163 18.9807 11.8577 18.9807 12C18.9807 12.1359 18.9775 12.274 18.9711 12.4144C18.9647 12.5548 18.9416 12.7154 18.9019 12.8962L20.7288 14.2731C20.9096 14.4103 21.0233 14.591 21.0701 14.8154C21.1169 15.0398 21.0801 15.2506 20.9596 15.4481L19.4557 18.0519C19.3352 18.2493 19.167 18.3849 18.9509 18.4586C18.7349 18.5323 18.5198 18.5224 18.3057 18.4288L16.2384 17.548C15.991 17.7455 15.7384 17.9202 15.4807 18.0721C15.223 18.224 14.9589 18.3481 14.6884 18.4442L14.398 20.7115C14.3647 20.9359 14.2644 21.1234 14.0971 21.274C13.9298 21.4247 13.7339 21.5 13.5096 21.5H10.4808ZM11 20H12.9654L13.325 17.3212C13.8352 17.1878 14.3016 16.9984 14.724 16.7529C15.1465 16.5074 15.5538 16.1917 15.9461 15.8058L18.4308 16.85L19.4154 15.15L17.2461 13.5154C17.3295 13.2564 17.3862 13.0026 17.4163 12.7539C17.4465 12.5051 17.4615 12.2539 17.4615 12C17.4615 11.7398 17.4465 11.4885 17.4163 11.2462C17.3862 11.0039 17.3295 10.7564 17.2461 10.5039L19.4346 8.85L18.45 7.15L15.9365 8.20963C15.6019 7.85193 15.201 7.5359 14.7336 7.26155C14.2663 6.98718 13.7936 6.79295 13.3154 6.67885L13 4H11.0154L10.6846 6.66922C10.1744 6.78974 9.7032 6.97436 9.27115 7.22307C8.8391 7.47179 8.42692 7.79231 8.03462 8.18463L5.55 7.15L4.56537 8.85L6.725 10.4596C6.64166 10.6968 6.58333 10.9436 6.55 11.2C6.51666 11.4564 6.5 11.7263 6.5 12.0096C6.5 12.2699 6.51666 12.525 6.55 12.775C6.58333 13.025 6.63845 13.2718 6.71537 13.5154L4.56537 15.15L5.55 16.85L8.025 15.8C8.40448 16.1898 8.81025 16.509 9.2423 16.7577C9.67435 17.0064 10.1519 17.1974 10.675 17.3308L11 20ZM12.0115 15C12.8436 15 13.5516 14.708 14.1355 14.124C14.7195 13.54 15.0115 12.832 15.0115 12C15.0115 11.168 14.7195 10.46 14.1355 9.87598C13.5516 9.29201 12.8436 9.00002 12.0115 9.00002C11.1692 9.00002 10.4587 9.29201 9.87982 9.87598C9.30099 10.46 9.01157 11.168 9.01157 12C9.01157 12.832 9.30099 13.54 9.87982 14.124C10.4587 14.708 11.1692 15 12.0115 15Z" fill="currentColor"/>
</svg>
