<svg width="24" height="24" viewBox="0 0 24 24" fill="none" xmlns="http://www.w3.org/2000/svg">
<mask id="mask0_6_7069" style="mask-type:alpha" maskUnits="userSpaceOnUse" x="0" y="0" width="24" height="24">
<rect width="24" height="24" fill="#D9D9D9"/>
</mask>
<g mask="url(#mask0_6_7069)">
<path d="M15.773 12.9731L14.65 11.85C14.8205 10.9603 14.5865 10.2013 13.9481 9.57308C13.3096 8.94488 12.5436 8.70385 11.65 8.85L10.5269 7.72695C10.759 7.61925 10.9978 7.54168 11.2433 7.49425C11.4888 7.44682 11.741 7.4231 12 7.4231C13.1346 7.4231 14.0977 7.81893 14.8894 8.6106C15.6811 9.40227 16.0769 10.3654 16.0769 11.5C16.0769 11.759 16.0548 12.0112 16.0105 12.2567C15.9663 12.5022 15.8871 12.741 15.773 12.9731ZM18.9538 16.0846L17.85 15.05C18.4833 14.5667 19.05 14.0292 19.55 13.4375C20.05 12.8458 20.4667 12.2 20.8 11.5C19.9667 9.81667 18.7625 8.47917 17.1875 7.4875C15.6125 6.49583 13.8833 6 12 6C11.5167 6 11.0458 6.03333 10.5875 6.1C10.1292 6.16667 9.66666 6.26667 9.2 6.4L8.03465 5.23465C8.67053 4.98337 9.31892 4.79811 9.97982 4.67888C10.6407 4.55964 11.3141 4.50003 12 4.50003C14.1487 4.50003 16.1224 5.05836 17.9211 6.17503C19.7198 7.29169 21.1032 8.80258 22.0711 10.7077C22.1378 10.8346 22.1862 10.9625 22.2163 11.0914C22.2464 11.2202 22.2615 11.3564 22.2615 11.5C22.2615 11.6436 22.249 11.7798 22.224 11.9087C22.199 12.0375 22.1532 12.1654 22.0865 12.2923C21.7327 13.0449 21.2884 13.7397 20.7538 14.3769C20.2192 15.0141 19.6192 15.5833 18.9538 16.0846ZM12 18.5C9.89488 18.5 7.96541 17.9375 6.21157 16.8125C4.45772 15.6875 3.06349 14.2058 2.02887 12.3673C1.94554 12.2404 1.88465 12.1026 1.8462 11.9539C1.80773 11.8051 1.7885 11.6539 1.7885 11.5C1.7885 11.3462 1.80516 11.1974 1.8385 11.0539C1.87183 10.9103 1.93016 10.7699 2.0135 10.6327C2.3853 9.95322 2.80646 9.3061 3.27697 8.69135C3.74749 8.0766 4.28851 7.52564 4.90005 7.03848L2.64235 4.76538C2.50388 4.61666 2.43561 4.44006 2.43755 4.23558C2.43946 4.03109 2.51286 3.85642 2.65772 3.71155C2.80259 3.56668 2.97823 3.49425 3.18465 3.49425C3.39105 3.49425 3.56668 3.56668 3.71155 3.71155L20.2885 20.2885C20.4269 20.4269 20.5003 20.5984 20.5086 20.8029C20.517 21.0073 20.4436 21.1871 20.2885 21.3423C20.1436 21.4871 19.9679 21.5596 19.7615 21.5596C19.5551 21.5596 19.3795 21.4871 19.2346 21.3423L15.7154 17.8538C15.1256 18.082 14.5196 18.2468 13.8971 18.3481C13.2747 18.4493 12.6423 18.5 12 18.5ZM5.95387 8.09228C5.36797 8.54484 4.84136 9.05671 4.37405 9.62788C3.90673 10.199 3.51538 10.8231 3.2 11.5C4.03333 13.1833 5.2375 14.5208 6.8125 15.5125C8.3875 16.5042 10.1167 17 12 17C12.4295 17 12.8523 16.9712 13.2683 16.9135C13.6843 16.8558 14.0975 16.7667 14.5077 16.6462L13.2423 15.35C13.0398 15.4384 12.8375 15.4984 12.6356 15.5298C12.4337 15.5612 12.2218 15.5769 12 15.5769C10.8654 15.5769 9.90226 15.1811 9.1106 14.3894C8.31893 13.5977 7.9231 12.6346 7.9231 11.5C7.9231 11.2782 7.94041 11.0663 7.97502 10.8644C8.00964 10.6625 8.06797 10.4602 8.15002 10.2577L5.95387 8.09228Z" fill="currentColor"/>
</g>
</svg>
