<svg width="24" height="24" viewBox="0 0 24 24" fill="none" xmlns="http://www.w3.org/2000/svg">
<g clip-path="url(#clip0_24_4057)">
<path d="M3.80838 8.87936V16.7185C3.80838 18.0804 4.54131 19.1957 5.4467 19.1957H18.5533C19.4587 19.1957 20.1916 18.0912 20.1916 16.7185V8.87936H17.6371V6.35925C17.6371 5.50134 16.9365 4.80429 16.0742 4.80429H5.37125C4.50898 4.80429 3.80838 5.50134 3.80838 6.35925V8.87936ZM3.80838 8.87936H17.6263" stroke="currentColor" stroke-width="1.5" stroke-linecap="round" stroke-linejoin="round"/>
<path d="M16.4623 13.2225C16.9147 13.2225 17.2814 12.8576 17.2814 12.4075C17.2814 11.9574 16.9147 11.5925 16.4623 11.5925C16.0099 11.5925 15.6431 11.9574 15.6431 12.4075C15.6431 12.8576 16.0099 13.2225 16.4623 13.2225Z" fill="currentColor"/>
</g>
<defs>
<clipPath id="clip0_24_4057">
<rect width="18" height="16" fill="white" transform="translate(3 4)"/>
</clipPath>
</defs>
</svg>
