<svg width="24" height="24" viewBox="0 0 24 24" fill="none" xmlns="http://www.w3.org/2000/svg">
<g clip-path="url(#clip0_24_4042)">
<path d="M3 9.5363V16.7869C3 18.5855 4.03774 20 5.36792 20H18.6321C19.9623 20 21 18.5855 21 16.7869V10.5363C21 9.98402 20.5523 9.5363 20 9.5363H3ZM16.5189 13.2365C16.0566 13.2365 15.6887 12.8712 15.6887 12.4122C15.6887 11.9532 16.0566 11.5972 16.5189 11.5972C16.9811 11.5972 17.3396 11.9625 17.3396 12.4122C17.3396 12.8618 16.9717 13.2365 16.5189 13.2365ZM18.4151 6.27635C18.4151 5.02108 17.3868 4 16.1226 4H5.28302C4.0283 4 3 5.02108 3 6.27635V8.13115H18.4151V6.27635Z" fill="currentColor"/>
</g>
<defs>
<clipPath id="clip0_24_4042">
<rect width="18" height="16" fill="white" transform="translate(3 4)"/>
</clipPath>
</defs>
</svg>
